<svg xmlns="http://www.w3.org/2000/svg" viewBox="0 0 90 55"><path fill="#9f9e9a" d="m78.3 14.5-6.5-4.3C69.5 8.8 59.6.6 44.6 8c0 0 8.8 4.3 13.8 4.8 16 1.6 11.5 6.8 4.6 6.4-7-.4-10.6-5-22.7-2.6-5.9 1.2-8.8 3-10.2 5.2-.8 1.3-2.8 3.9-2.7 5.2 0 1 2 .8 2.2 1.8 1.2 4.5 6.3 10 12.4 12l26.2 8.8s1.1-4.6-2.2-5c-3.4-.4-13-4-18.8-11l12.5.1-5 4.3 4.8 3s11.3-4 10.4-11.4c-.6-4.7 3-4.2 9-4 0 0 4.4-.4 5.7-2.6 1.3-2-3.5-7.5-6.3-8.6zM46.4 43l-4.3 3.3s0 1 1 1.6c1.2.7 6-2.1 7.4-3.1l-4-1.8z"/><path fill="#e4b435" d="M6.8 24.5h7.6v4.8H6.8zm10.2 0h5.2v4.8H17zm-3.2 9.8h13v4.8h-13zm6.2 9.8h7.2V49H20zm10.7 0h5.6V49h-5.6zM23.1 5h12.6v4.8H23.1zm-12.5 9.8h5v4.8h-5zm8.4 0h7.8v4.8H19z"/></svg>