<svg version="1.1" xmlns="http://www.w3.org/2000/svg" viewBox="0 0 90 55">
	<g style="fill:#9f9e9a">
		<path d="M50.936 13.917 C50.936 13.917 46.659 10.993 44.333 9.577 C42.148 8.245 32.235 0 17.2422 7.4 C17.2422 7.4 26.058 11.653 31.026 12.173 C47.087 13.852 42.605 18.984 35.675 18.597 C28.747 18.206 25.081 13.664 12.999 16.02 C7.0928 17.17 4.1455 19.032 2.8067 21.161 C1.9873 22.46 0 25.054 0.0723 26.449 C0.124 27.442 2.0928 27.238 2.3281 28.19 C3.4365 32.669 8.5869 38.225 14.6641 40.145 C20.8389 42.1 40.879 49.04 40.879 49.04 C40.879 49.04 42.024 44.385 38.654 44.018 C35.284 43.654 25.609 40.071 19.8985 32.942 L32.429 33.13 L27.372 37.427 L32.187 40.315 C32.187 40.315 43.372 36.521 42.468 29.105 C41.892 24.393 45.579 24.898 51.482 25.042 C51.482 25.042 55.921 24.673 57.196 22.552 C58.473 20.432 53.7 14.962 50.936 13.917 Z" transform="translate(27.416, 0.598)"/>
		<path d="M4.331 0 L0.0254 3.316 C0.0254 3.316 0 4.279 1.0986 4.917 C2.2754 5.6 7.126 2.779 8.3796 1.771 L4.331 0 Z" transform="translate(42.0674, 42.898)"/>
	</g>
	<g style="fill:#e4b435">
		<rect height="4.8" x="6.7891" y="24.5130" width="7.6025" />
		<rect height="4.8" x="17.0195" y="24.5130" width="5.2022" />
		<rect height="4.8" x="13.7891" y="34.313" width="13.0009" />
		<rect height="4.8" x="20.0205" y="44.113" width="7.1875" />
		<rect height="4.8" x="30.7207" y="44.113" width="5.5879" />
		<rect height="4.8" x="23.0615" y="4.913" width="12.6465" />
		<rect height="4.8" x="10.5889" y="14.713" width="5.0136" />
		<rect height="4.8" x="18.9551" y="14.713" width="7.8388" />
	</g>
</svg>
